<?xml version="1.0" encoding="utf-8"?>
<!-- Generator: Adobe Illustrator 23.0.4, SVG Export Plug-In . SVG Version: 6.00 Build 0)  -->
<svg version="1.1" id="Capa_1" xmlns="http://www.w3.org/2000/svg" xmlns:xlink="http://www.w3.org/1999/xlink" x="0px" y="0px"
	 viewBox="0 0 616 96" style="enable-background:new 0 0 616 96;" xml:space="preserve">
<style type="text/css">
	.st0{fill:#F33784;}
	.st1{fill:#FFFFFF;}
</style>
<title>0F457D00-D94D-420C-996B-37CAB86E706D</title>
<g>
	<path class="st0" d="M168.2,1.3c-3.7-2.1-8.3-0.9-10.4,2.8l0,0L127.1,54l-10.9-18.9c-1-2-2.8-3.5-4.9-4.1l-0.7-0.1H108l-0.7,0.1
		c-2.2,0.6-4,2-4.9,4.1l-11,19l-19-32.9C64.6,5.9,47.6-2.2,30.8,1.2C14,4.7,1.6,18.9,0.4,36s9.2,32.9,25.4,38.6s34.2,0,44-14
		c2.1-3.6,0.9-8.3-2.8-10.4c-3.4-2-7.7-1.1-10,2.1c-7.5,10.2-21.9,12.4-32.1,4.9s-12.3-22-4.8-32.2S42,12.6,52.2,20.1
		c2.5,1.8,4.6,4.1,6.1,6.8L84.8,73c1.2,2.1,3.3,3.5,5.7,3.7h2c2.4-0.3,4.5-1.7,5.7-3.7l11.2-19.4L120.5,73c0.9,1.6,2.4,2.8,4.2,3.4
		h0.1l0.6,0.2h0.2l0.5,0.1h2.1l0.5-0.1h0.2l0.6-0.2h0.1c1.8-0.6,3.3-1.8,4.2-3.4L171,11.7C173.1,8.1,171.8,3.4,168.2,1.3L168.2,1.3"
		/>
	<path class="st1" d="M183.1,39.4c-0.1-5.8,0.3-11.7,1.2-17.4c0.5-3.9,1.8-7.7,3.6-11.2c1.4-2.6,3.5-4.7,6.2-6
		c5.5-2.3,11.6-2.3,17.1-0.1c2.5,1.2,4.4,3.2,5.6,5.7c1.7,3.5,2.7,7.2,3.1,11.1c0.7,5.8,1,11.7,1,17.5c0.1,6-0.3,12-1.1,18
		c-0.5,4-1.7,8-3.5,11.6c-1.3,2.6-3.4,4.8-6,6.2c-2.7,1.3-5.7,1.9-8.7,1.8c-2.9,0.1-5.8-0.4-8.6-1.5c-2.5-1.2-4.5-3.2-5.7-5.7
		c-1.7-3.6-2.8-7.4-3.2-11.4C183.3,51.8,183,45.6,183.1,39.4 M196.2,41.9c0,4,0.1,7.5,0.2,10.3c0.1,2.4,0.4,4.7,0.8,7.1
		c0.2,1.5,0.9,2.9,1.8,4c0.8,0.9,1.9,1.4,3.1,1.3c1.2,0,2.3-0.5,3.1-1.4c1-1.3,1.6-2.8,1.9-4.5c0.5-2.6,0.8-5.2,0.9-7.9
		c0.2-3.2,0.3-7.1,0.3-11.6s0-8.3-0.2-11.4c0-2.6-0.3-5.1-0.8-7.6c-0.2-1.6-0.9-3-1.8-4.3c-0.8-0.9-2-1.4-3.3-1.3
		c-1.1,0-2.2,0.5-2.9,1.4c-1,1.4-1.6,3-1.9,4.6c-0.6,2.8-0.9,5.6-1,8.4C196.3,32.8,196.3,37,196.2,41.9 M226.3,27.4
		c2.2-1.3,4.5-2.3,7-2.9c2.7-0.7,5.4-1.1,8.2-1.1c2.3,0,4.5,0.3,6.7,0.9c2,0.6,3.8,1.7,5.2,3.2c1.6,1.9,2.7,4,3.4,6.4
		c0.9,3.4,1.3,6.8,1.2,10.3c0.1,5.6-0.3,11.2-1.1,16.7c-0.5,3.4-1.4,6.7-2.9,9.8c-0.9,2-2.4,3.6-4.2,4.7c-1.6,0.8-3.4,1.2-5.3,1.2
		c-2.4,0.2-4.8-0.5-6.8-1.9v20.2c-0.9,0.4-1.9,0.6-2.9,0.7s-2,0.2-3,0.2c-1.5,0.1-3-0.2-4.2-1c-0.9-0.7-1.3-2-1.3-3.9V27.4
		L226.3,27.4L226.3,27.4z M237.7,64.7c0.6,1.1,1.7,1.8,2.9,1.8c0.6,0,1.1-0.2,1.6-0.6c0.7-0.8,1.2-1.8,1.4-2.9
		c0.5-2.2,0.9-4.4,1-6.6c0.3-2.9,0.4-6.7,0.4-11.6c0-2-0.1-4-0.3-6c-0.1-1.2-0.4-2.4-0.8-3.5c-0.2-0.7-0.7-1.3-1.3-1.7
		c-0.6-0.3-1.2-0.5-1.9-0.5c-1.1,0-2.2,0.5-3.1,1.2L237.7,64.7L237.7,64.7z M280.5,23.4c3.6-0.2,7.2,1.3,9.6,3.9
		c2.3,2.6,3.5,6.9,3.5,12.8c0,2.5-0.1,5-0.3,7.6c-0.2,2.3-0.5,4.7-1.1,6.9c-1.4,0.3-2.8,0.5-4.2,0.7c-1.5,0.2-3.1,0.3-4.7,0.5
		c-1.6,0.1-3.2,0.2-4.7,0.3s-2.9,0.1-4.2,0.1c-0.1,2.5,0.5,4.9,1.6,7.1c0.9,1.5,2.6,2.2,5.1,2.2c1.9,0,3.7-0.3,5.5-0.8
		c1.9-0.5,3.7-1.2,5.4-2.1c0.4,1.2,0.6,2.5,0.7,3.7c0.1,1.5,0.2,2.8,0.2,3.9c0,1-0.4,2-1.1,2.7c-0.9,0.9-2,1.6-3.1,2
		c-1.5,0.6-3.1,1-4.7,1.2c-1.9,0.3-3.8,0.4-5.6,0.4c-2.2,0-4.3-0.3-6.4-1c-2-0.7-3.8-2-5-3.7c-1.6-2.2-2.7-4.8-3.3-7.4
		c-0.9-3.9-1.3-8-1.2-12c-0.1-5.1,0.4-10.1,1.5-15.1c0.7-3.2,2-6.2,3.9-8.8c1.5-1.9,3.5-3.4,5.7-4.2
		C275.9,23.7,278.2,23.3,280.5,23.4 M279,33.3c-1.6,0-2.7,1.1-3.4,3.4c-0.8,3.4-1.2,7-1.2,10.5c1.4,0,2.9-0.1,4.3-0.2
		c1.1-0.1,2.2-0.3,3.3-0.7c0.2-0.8,0.4-1.7,0.4-2.5c0.1-0.9,0.1-1.9,0.1-2.8c0-1.3,0-2.6-0.2-3.9c-0.1-0.8-0.3-1.6-0.6-2.3
		c-0.2-0.5-0.6-0.9-1.1-1.1C280,33.4,279.5,33.3,279,33.3 M299,26.8c1-0.5,2.1-0.9,3.1-1.2c1.4-0.4,2.7-0.8,4.1-1.1
		c1.5-0.3,3-0.6,4.5-0.8c1.4-0.2,2.8-0.3,4.2-0.3c2.2,0,4.5,0.2,6.7,0.6c1.7,0.3,3.2,1.1,4.6,2.2c1.2,1.1,2.1,2.5,2.6,4.1
		c0.6,2.1,0.9,4.2,0.9,6.4v37c0,0.4,0,0.8-0.2,1.2c-0.4,0.4-0.9,0.6-1.4,0.6c-0.8,0.1-2,0.2-3.6,0.2s-3.8,0-6.7,0V40.1
		c0.1-1.8-0.1-3.7-0.6-5.5c-0.5-1.1-1.6-1.7-2.8-1.5c-1.4,0-2.8,0.4-3.9,1.2v39.2c0,0.4,0,0.8-0.2,1.2c-0.3,0.4-0.8,0.6-1.3,0.6
		c-1.1,0.1-2.3,0.2-3.4,0.2H299V26.8L299,26.8L299,26.8z M333.4,6.9c-0.2-0.8-0.2-1.6,0.1-2.4c0.7-0.5,1.6-0.8,2.5-0.6h9.6l5,33.4
		c0.7,4.9,1.3,9.7,1.8,14.6c0.5,4.6,0.8,8.6,1,12h0.8c0.1-4.7,0.4-9.3,0.9-13.8c0.4-4.3,1-8.6,1.7-12.9l4.4-27.3
		c0.1-0.8,0.3-1.6,0.7-2.4c0.5-0.6,1.3-0.8,2.1-0.7h8.1l5.3,30.3c0.9,5.1,1.5,10,1.9,14.6s0.8,8.6,1,12h0.8c0.1-1.8,0.2-3.9,0.4-6.1
		c0.2-2.2,0.4-4.5,0.6-6.8s0.4-4.6,0.7-7c0.2-2.3,0.5-4.6,0.9-6.8l4.2-30c0-0.8,0.3-1.6,0.7-2.4c0.5-0.6,1.3-0.8,2.1-0.7h9.9
		l-12.2,71.8c-1.2,0.1-2.1,0.2-2.9,0.3l-2.2,0.2c-0.7,0.1-1.4,0.1-2.2,0.1h-2.7c-1.6,0.1-3.1-0.5-4.1-1.7c-1.1-1.4-1.8-3-2-4.8
		L370,58.7c-0.3-1.8-0.7-3.9-1-6c-0.3-2.2-0.7-4.5-0.9-6.8c-0.3-2.3-0.5-4.6-0.8-7l-0.7-6.6L366,39c-0.2,2.3-0.5,4.6-0.8,7
		c-0.3,2.3-0.6,4.5-0.9,6.8c-0.3,2-0.6,4-0.9,6l-2.8,16.9c-1,0.1-1.9,0.2-2.7,0.2c-0.8,0-1.6,0.1-2.4,0.2s-1.7,0.1-2.6,0.1h-3.2
		c-1.5,0.1-2.8-0.6-3.7-1.8c-0.9-1.4-1.6-2.9-1.8-4.5c-0.4-2.1-0.9-4.5-1.4-7.5c-0.5-2.9-1.1-6.1-1.7-9.4c-0.6-3.3-1.2-6.8-1.8-10.3
		c-0.6-3.6-1.2-7.1-1.7-10.5C336.2,24.1,334.9,15.7,333.4,6.9 M416.6,23.4c3.6-0.2,7.2,1.3,9.6,3.9c2.3,2.6,3.5,6.9,3.5,12.8
		c0,2.5-0.1,5-0.3,7.6c-0.2,2.3-0.5,4.7-1.1,6.9c-1.4,0.3-2.8,0.5-4.2,0.7c-1.5,0.2-3.1,0.3-4.7,0.5c-1.6,0.1-3.2,0.2-4.7,0.3
		s-2.9,0.1-4.2,0.1c-0.1,2.5,0.5,4.9,1.6,7.1c0.9,1.5,2.6,2.2,5.1,2.2c1.9,0,3.7-0.3,5.5-0.8c1.9-0.5,3.7-1.2,5.4-2.1
		c0.4,1.2,0.6,2.5,0.7,3.7c0.1,1.5,0.2,2.8,0.2,3.9c0,1-0.4,2-1.1,2.7c-0.9,0.9-2,1.6-3.1,2c-1.5,0.6-3.1,1-4.7,1.2
		c-1.9,0.3-3.8,0.4-5.6,0.4c-2.2,0-4.3-0.3-6.4-1c-2-0.7-3.8-2-5-3.7c-1.6-2.2-2.7-4.8-3.3-7.4c-0.9-3.9-1.3-8-1.2-12
		c-0.1-5.1,0.4-10.1,1.5-15.1c0.7-3.2,2-6.2,3.9-8.8c1.5-1.9,3.5-3.4,5.7-4.2C412,23.7,414.3,23.3,416.6,23.4 M415.1,33.3
		c-1.6,0-2.7,1.1-3.4,3.4c-0.8,3.4-1.2,7-1.2,10.5c1.4,0,2.9-0.1,4.3-0.2c1.1-0.1,2.2-0.3,3.3-0.7c0.2-0.8,0.4-1.7,0.4-2.5
		c0.1-1.1,0.1-2,0.1-2.8c0-1.3,0-2.6-0.2-3.9c-0.1-0.8-0.3-1.6-0.6-2.3c-0.2-0.5-0.6-0.9-1.1-1.1C416.2,33.4,415.6,33.3,415.1,33.3
		 M435.4,5.4c0-1,0.1-2,0.5-3c0.3-0.7,1-1.2,1.7-1.5c1.1-0.4,2.3-0.5,3.5-0.6c1.5-0.1,3.4-0.1,5.8-0.1v26c1.1-1,2.4-1.7,3.8-2.2
		c1.6-0.5,3.2-0.8,4.9-0.8c1.8-0.1,3.6,0.3,5.3,1.1c1.5,0.8,2.8,2,3.6,3.5c1.1,2,1.8,4.2,2.1,6.5c0.5,3.2,0.7,6.5,0.7,9.7
		c0.2,5.8-0.4,11.7-1.8,17.4c-0.9,3.6-2.5,6.9-4.7,9.8c-1.6,2.1-3.9,3.6-6.4,4.4c-2.2,0.6-4.5,1-6.8,1c-2.4,0-4.8-0.2-7.2-0.8
		c-1.7-0.4-3.4-1.2-4.8-2.3L435.4,5.4L435.4,5.4L435.4,5.4z M446.8,65.8c0.6,0.6,1.4,0.9,2.2,0.8c0.6-0.1,1.2-0.3,1.6-0.8
		c0.8-0.8,1.3-1.9,1.6-3c0.6-2,1.1-4.1,1.3-6.2c0.4-3.5,0.6-7,0.5-10.5c0.2-3.3-0.2-6.6-1-9.8c-0.6-1.8-1.6-2.8-2.9-2.8
		s-2.5,0.5-3.4,1.4L446.8,65.8L446.8,65.8z M483.9,73.6c0,0.4,0,0.8-0.2,1.2c-0.3,0.4-0.8,0.6-1.3,0.6c-1.2,0.1-2.3,0.2-3.5,0.2
		h-6.7V29.4c0-1,0.1-2,0.5-2.9c0.4-0.7,1-1.2,1.8-1.5c1.1-0.4,2.3-0.5,3.5-0.6c1.5-0.1,3.5-0.1,5.9-0.1L483.9,73.6L483.9,73.6
		L483.9,73.6z M472.8,9.4c-0.1-2,0.4-4,1.5-5.8c1.1-1.5,2.9-2.4,4.8-2.2c2.1,0,3.6,0.5,4.3,1.6c0.9,1.8,1.3,3.8,1.1,5.9
		c0.1,2.3-0.4,4.5-1.6,6.5c-1,1.5-2.7,2.3-4.5,2.3c-1.5,0.1-3-0.6-4-1.7C473.3,14.8,472.8,12.6,472.8,9.4L472.8,9.4z M490.7,26.8
		c1-0.5,2.1-0.9,3.1-1.2c1.4-0.4,2.7-0.8,4.1-1.1c1.5-0.3,3-0.6,4.5-0.8c1.4-0.2,2.8-0.3,4.2-0.3c2.2,0,4.5,0.2,6.7,0.6
		c1.7,0.3,3.2,1.1,4.6,2.2c1.2,1.1,2.1,2.5,2.6,4.1c0.6,2.1,0.9,4.2,0.9,6.4v37c0,0.4,0,0.8-0.2,1.2c-0.4,0.4-0.9,0.6-1.4,0.6
		c-0.8,0.1-2,0.2-3.6,0.2s-3.8,0-6.7,0V40.1c0.1-1.8-0.1-3.7-0.6-5.5c-0.5-1-1.6-1.7-2.8-1.5c-1.4,0-2.8,0.4-3.9,1.2v39.2
		c0,0.4,0,0.8-0.2,1.2c-0.3,0.4-0.8,0.6-1.3,0.6c-1.1,0.1-2.3,0.2-3.4,0.2h-6.6V26.8L490.7,26.8L490.7,26.8z M526.6,29.9
		c0-0.7,0.1-1.4,0.4-2c0.2-0.6,0.6-1.2,1.1-1.6c1.6-0.9,3.3-1.5,5.1-1.9c3.3-0.8,6.7-1.2,10.2-1.1c4.7,0,8,0.9,10,2.8
		c1.9,1.9,2.9,5.1,2.9,9.7v22.7c0,2.9-0.1,5.6-0.2,8.1c-0.1,2.5-0.2,4.7-0.3,6.7c-2,1.1-4.2,1.9-6.4,2.4c-2.7,0.6-5.5,0.9-8.3,0.9
		c-1.8,0-3.7-0.2-5.5-0.5c-1.7-0.3-3.3-1.1-4.6-2.1c-1.5-1.3-2.6-3-3.2-4.8c-0.9-2.7-1.3-5.6-1.2-8.5c-0.1-2.9,0.3-5.8,1-8.6
		c0.5-1.9,1.4-3.7,2.6-5.2c1-1.2,2.3-2,3.8-2.5c1.4-0.4,2.9-0.7,4.4-0.7c1,0,2.1,0.1,3.1,0.3c1.2,0.2,2.4,0.6,3.4,1.2v-7.1
		c0.1-1.1-0.2-2.1-1-2.9c-1-0.7-2.2-1-3.3-0.9c-2.1,0-4.2,0.2-6.3,0.6c-2,0.3-4,0.9-6,1.5c-0.6-1.1-1-2.3-1.2-3.6
		C526.7,32,526.6,31,526.6,29.9L526.6,29.9z M544.7,53c-0.4-0.4-0.8-0.6-1.3-0.7c-0.5-0.1-0.9-0.2-1.4-0.2c-1.1,0-2.1,0.6-2.6,1.6
		c-0.6,1.1-0.9,3.3-0.9,6.6c-0.1,1.8,0.1,3.6,0.7,5.3c0.4,1.1,1.5,1.7,2.6,1.6c0.5,0,1-0.1,1.5-0.3c0.5-0.1,0.9-0.4,1.3-0.8
		c0.1-0.8,0.1-1.6,0.2-2.4L544.7,53L544.7,53z M562.4,28c2-1.3,4.1-2.4,6.3-3.2c2.5-0.9,5.2-1.4,7.9-1.4c2.8,0,4.6,0.4,5.5,1.2
		c1,1.1,1.5,2.5,1.3,3.9c0,1-0.1,1.9-0.2,2.9c-0.2,1.3-0.5,2.6-0.9,3.8c-0.7-0.3-1.3-0.5-2.1-0.7c-0.6-0.1-1.2-0.2-1.7-0.2
		c-0.7,0-1.5,0.2-2.2,0.4c-0.8,0.3-1.6,0.7-2.2,1.2L574,73.5c0,0.4,0,0.8-0.2,1.2c-0.3,0.4-0.8,0.6-1.3,0.6
		c-1.1,0.1-2.2,0.1-3.3,0.1h-6.8V28L562.4,28L562.4,28z M603.3,23.4c2.3-0.1,4.6,0.2,6.8,0.7c1.4,0.3,2.6,0.9,3.8,1.6
		c0.8,0.5,1.3,1.3,1.6,2.1c0.2,0.7,0.3,1.4,0.4,2.1c0,1-0.2,2-0.6,2.9c-0.4,1-0.9,1.9-1.6,2.6c-1.3-0.7-2.8-1.3-4.3-1.6
		s-3-0.5-4.6-0.5c-3.2,0-4.8,1-4.8,3.1c0,0.7,0.2,1.3,0.5,1.9c0.6,1.2,1.5,2.3,2.5,3.2l7.6,7.7c0.9,1,1.8,2.1,2.5,3.3
		c0.6,0.9,1.1,1.9,1.6,3c0.4,1,0.7,2,0.8,3c0.1,1.2,0.2,2.4,0.2,3.5c0.2,4.1-1.5,8.2-4.7,10.9c-3.1,2.6-7.3,3.9-12.6,3.9
		c-1.6,0-3.1-0.1-4.7-0.3c-1.3-0.2-2.6-0.5-3.8-1c-1-0.4-1.9-1-2.6-1.8c-0.7-0.8-1-1.9-1-2.9s0.2-2,0.4-2.9c0.3-1.2,0.8-2.4,1.4-3.5
		c1.4,0.7,2.9,1.3,4.5,1.7c1.5,0.4,3,0.6,4.5,0.6c1.4,0.1,2.8-0.3,3.9-1.2c0.9-0.8,1.4-1.9,1.3-3.1c0-0.9-0.1-1.7-0.4-2.6
		c-0.4-1.2-1-2.3-1.9-3.2l-8.9-9.4c-1.6-1.7-2.9-3.6-3.8-5.7c-0.7-1.6-1.1-3.4-1.1-5.1c0-1.7,0.3-3.4,0.9-5c0.6-1.6,1.5-3,2.8-4
		c1.5-1.2,3.3-2.1,5.2-2.6C597.9,23.7,600.6,23.3,603.3,23.4"/>
</g>
</svg>
